HIERARCHY
ROOT pelvis
{
  OFFSET 0 100 0
  CHANNELS 6 Xposition Yposition Zposition Zrotation Xrotation Yrotation
  JOINT pelvis_right_femur
  {
    OFFSET -10.78128 -3.44521 -0.5502486
    CHANNELS 3 Zrotation Xrotation Yrotation
    JOINT right_femur_tibia
    {
      OFFSET -0.8047443 -44.0398 -0.1307829
      CHANNELS 3 Zrotation Xrotation Yrotation
      JOINT right_tibia_foot
      {
        OFFSET 3.006224 -47.83518 -5
        CHANNELS 3 Zrotation Xrotation Yrotation
        End Site
        {
          OFFSET 0 -5 15
        }
      }
    }
  }
  JOINT pelvis_left_femur
  {
    OFFSET 10.78128 -3.44521 -0.5502486
    CHANNELS 3 Zrotation Xrotation Yrotation
    JOINT left_femur_tibia
    {
      OFFSET 0.8047443 -44.0398 -0.1307829
      CHANNELS 3 Zrotation Xrotation Yrotation
      JOINT left_tibia_foot
      {
        OFFSET -4.370144 -48.10324 -4.275266
        CHANNELS 3 Zrotation Xrotation Yrotation
        End Site
        {
          OFFSET 0 -5 15
        }
      }
    }
  }
  JOINT pelvis_spine1
  {
    OFFSET 0 6.468898 -3.129235
    CHANNELS 3 Zrotation Xrotation Yrotation
    JOINT spine1
    {
      OFFSET 0 23.15396 4.99043
      CHANNELS 3 Zrotation Xrotation Yrotation
      JOINT spine2
      {
        OFFSET 0 20.79997 -5.064912
        CHANNELS 3 Zrotation Xrotation Yrotation
        JOINT neck
        {
          OFFSET 0 14.38658 9.616178
          CHANNELS 3 Zrotation Xrotation Yrotation
          End Site
          {
            OFFSET 0 20 0
          }
        }
      }
      JOINT right_manubrium
      {
        OFFSET -5.722621 16.35077 3.967754
        CHANNELS 3 Zrotation Xrotation Yrotation
        JOINT right_clavicle
        {
          OFFSET -13.16364 1.694482 -4.693211
          CHANNELS 3 Zrotation Xrotation Yrotation
          JOINT right_humerus
          {
            OFFSET -28.5034 -0.3100689 -2.792744
            CHANNELS 3 Zrotation Xrotation Yrotation
            JOINT right_radius
            {
              OFFSET -25.15693 0.02248979 -1.271978
              CHANNELS 3 Zrotation Xrotation Yrotation
              End Site
              {
                OFFSET -15 0 0
              }
            }
          }
        }
      }
      JOINT left_manubrium
      {
        OFFSET 5.722621 16.35077 3.967754
        CHANNELS 3 Zrotation Xrotation Yrotation
        JOINT left_clavicle
        {
          OFFSET 13.16364 1.694482 -4.693211
          CHANNELS 3 Zrotation Xrotation Yrotation
          JOINT left_humerus
          {
            OFFSET 29.39168 -1.063119 -2.237045
            CHANNELS 3 Zrotation Xrotation Yrotation
            JOINT left_radius
            {
              OFFSET 24.59957 -0.9528479 0.9047498
              CHANNELS 3 Zrotation Xrotation Yrotation
              End Site
              {
                OFFSET 15 -0 -0
              }
            }
          }
        }
      }
    }
  }
}
MOTION
Frames: 9
Frame Time: 0.0416666666667
1479.001 97.37576 2731.013 8.203898 -3.859232 49.96833 -0.04876372 12.04389 6.048424 -0 43.68862 -0 2.945911 -4.705047 -6.298397 -3.830207 -13.82223 -6.424817 -0 23.29444 -0 -5.408214 -10.60918 17.96543 -2.686828 0.0761302 7.63129 -1.127209 9.936309 -3.441692 2.79671 22.12234 3.540682 0.953285 -17.0539 6.585583 0.08136629 -20.91291 10.09859 84.98776 17.99848 -8.412921 -0 0 22.05548 -21.77425 7.039245 12.63458 3.087777 -14.21442 -3.211108 -91.8455 24.92903 23.85369 0 0 -9.595808 -3.104062 2.377471 18.88418
1484.661 98.12411 2734.503 8.465067 -3.905582 50.90994 0.002451476 7.338286 5.616984 -0 48.72432 -0 2.598857 -2.852048 -7.331138 -4.624794 -9.352077 -6.830031 -0 22.87637 -0 -5.064594 -11.64746 17.35117 -2.883604 0.2387707 6.779311 -0.9900907 10.03578 -4.040395 2.6458 22.29445 3.720532 0.9859645 -16.78499 6.618061 0.5648438 -20.00435 10.06279 85.93775 18.69293 -10.00547 -0 0 20.23666 -21.10424 7.128484 12.10023 3.07069 -14.89838 -3.595279 -90.41745 25.24769 21.63553 0 0 -10.81446 -2.685021 2.535096 18.43427
1490.055 98.89731 2737.831 8.514121 -4.007429 52.00055 0.3165829 1.618567 5.19426 -0 50.92755 -0 1.994339 -2.02582 -8.25272 -5.032858 -4.635269 -7.065935 -0 21.81437 -0 -4.866692 -12.8207 16.67048 -2.847428 0.5480114 5.808694 -0.7769377 10.08308 -4.789715 2.491214 22.45047 3.934265 1.012862 -16.45166 6.692407 0.8537931 -19.07016 9.964389 86.96411 19.41553 -11.7793 -0 0 18.4465 -20.38575 7.302472 11.53211 3.260479 -15.84248 -3.995289 -88.73623 25.51299 18.82703 0 0 -12.66152 -2.102147 2.79201 17.75988
1495.219 99.47401 2741.044 8.358637 -4.043895 53.11068 0.6963088 -4.405457 4.801801 -0 49.73115 -0 1.256765 -2.142276 -8.982861 -5.160187 -0.04453447 -7.187194 -0 20.31472 -0 -4.795827 -14.10569 15.91 -2.711726 0.8757461 4.869585 -0.4762827 10.0487 -5.606183 2.371734 22.54902 4.126435 1.025825 -16.1387 6.795103 0.9129221 -18.15829 9.81368 87.97972 19.99916 -13.62857 -0 0 16.79234 -19.7027 7.525633 10.98839 3.656702 -16.95408 -4.323382 -86.93869 25.59163 15.64824 0 0 -14.95801 -1.358208 3.114929 16.80056
1500.232 99.69452 2744.222 8.061513 -3.927844 54.15403 0.977793 -10.06056 4.398658 -0 45.50249 -0 0.5307791 -2.873602 -9.540652 -5.156433 4.185992 -7.241045 -0 18.78063 -0 -4.826583 -15.43104 15.0924 -2.614401 1.116263 4.068659 -0.09975844 9.915434 -6.384107 2.31542 22.57778 4.250715 1.028541 -15.89641 6.898484 0.7997194 -17.26664 9.643664 88.894 20.3574 -15.44722 -0 0 15.26247 -19.09745 7.759773 10.4862 4.211384 -18.10959 -4.528766 -85.1623 25.40941 12.33096 0 0 -17.46477 -0.4970224 3.461446 15.56141
1505.195 99.49655 2747.455 7.702454 -3.648038 55.09408 1.091207 -14.87134 3.947619 -0 39.30536 -0 -0.07031236 -3.825598 -9.979053 -5.13276 7.94817 -7.261972 -0 17.67512 -0 -4.954801 -16.65589 14.27551 -2.6208 1.22017 3.447078 0.3091598 9.688003 -7.02751 2.334132 22.55287 4.291956 1.034328 -15.7269 6.984284 0.6176187 -16.372 9.486577 89.64892 20.52727 -17.14327 -0 0 13.78986 -18.5794 8.000435 10.00766 4.841623 -19.18375 -4.612777 -83.5249 24.99709 9.100376 0 0 -19.96174 0.4045736 3.803833 14.14226
1510.205 98.9216 2750.822 7.356722 -3.276283 55.92804 1.083478 -18.5754 3.479546 -0 32.51421 -0 -0.5033203 -4.684174 -10.33686 -5.122819 11.20302 -7.274863 -0 17.4347 -0 -5.196794 -17.57716 13.53613 -2.700864 1.191624 2.98842 0.6862349 9.39641 -7.473934 2.425535 22.51286 4.258796 1.052201 -15.5962 7.050836 0.4577775 -15.46313 9.359807 90.24501 20.61862 -18.64613 -0 0 12.31812 -18.12754 8.26519 9.513491 5.44362 -20.07095 -4.617004 -82.11332 24.47928 6.165275 0 0 -22.26674 1.262381 4.141062 12.7113
1515.339 98.10142 2754.381 7.088054 -2.941594 56.66313 1.098787 -21.04703 3.10681 -0 26.4509 -0 -0.8066203 -5.297612 -10.62788 -5.090008 13.9182 -7.295594 -0 18.42716 -0 -5.564978 -17.97086 12.95859 -2.758547 1.064794 2.644852 0.971271 9.089268 -7.705072 2.57667 22.50873 4.162551 1.074508 -15.46091 7.104014 0.3652426 -14.55914 9.266628 90.73032 20.73062 -19.89764 -0 0 10.8376 -17.69133 8.556099 8.960255 5.911409 -20.69651 -4.591081 -80.98936 24.01184 3.711737 0 0 -24.19911 2.016529 4.501136 11.43374
1520.646 97.23281 2758.17 6.944363 -2.784215 57.29386 1.320147 -22.21349 2.980995 -0 22.10774 -0 -1.081283 -5.688234 -10.84856 -4.964895 16.01535 -7.330926 -0 20.92324 -0 -6.040835 -17.66025 12.63589 -2.68728 0.8799313 2.370844 1.132628 8.823494 -7.744148 2.765587 22.58603 4.004648 1.07999 -15.29724 7.142103 0.3438756 -13.71263 9.207586 91.15336 20.90302 -20.83603 -0 0 9.396963 -17.20248 8.835365 8.321125 6.162922 -21.02266 -4.557827 -80.21505 23.70594 1.904334 0 0 -25.53887 2.649606 4.931112 10.40033
